Results
version=1
nRows=9
nColumns=24
inDegrees=yes
endheader
time	pelvis_tilt	pelvis_list	pelvis_rotation	pelvis_tx	pelvis_ty	pelvis_tz	hip_flexion_r	hip_adduction_r	hip_rotation_r	knee_angle_r	ankle_angle_r	subtalar_angle_r	mtp_angle_r	hip_flexion_l	hip_adduction_l	hip_rotation_l	knee_angle_l	ankle_angle_l	subtalar_angle_l	mtp_angle_l	lumbar_extension	lumbar_bending	lumbar_rotation
      0.91200000	    -10.21698094	     -2.98631326	      6.07698964	     -0.32874756	      0.89921581	      0.30235717	     22.64294692	      7.73531115	     -5.67283490	    -23.29476300	      9.22296506	     -1.87849259	      6.62331667	     24.08020244	     -6.18432002	     -5.33337002	    -64.48081675	      4.30553100	     -2.24854291	      7.21057309	      6.29903750	      5.26404935	     -3.50924680
      0.91616667	    -10.18472130	     -2.84612808	      5.84423729	     -0.32395941	      0.90031100	      0.30289564	     22.03006967	      7.74014274	     -5.42980221	    -22.83880374	      9.22215195	     -1.76733356	      6.67328730	     24.56284501	     -6.05349064	     -5.65095496	    -63.89549893	      4.66988784	     -2.24225814	      7.14051216	      6.21541490	      5.15233728	     -3.22210032
      0.92033333	    -10.16887351	     -2.70267741	      5.58706726	     -0.31919321	      0.90133633	      0.30345848	     21.44603087	      7.73942756	     -5.17494731	    -22.40211054	      9.19634201	     -1.62469965	      6.69973313	     25.04765314	     -5.93035280	     -5.99534368	    -63.26582386	      5.00323340	     -2.28996961	      7.10209681	      6.15389378	      5.04215682	     -3.03843135
      0.92450000	    -10.10547404	     -2.55689060	      5.33639792	     -0.31442226	      0.90241530	      0.30402987	     20.79591705	      7.74096251	     -4.90365841	    -21.93389407	      9.20619225	     -1.53274539	      6.74079749	     25.46423772	     -5.80713013	     -6.32002178	    -62.57626441	      5.27008206	     -2.32642551	      7.03636143	      6.02278978	      4.94395068	     -2.66121742
      0.92866667	    -10.06004009	     -2.41475562	      5.06691263	     -0.30965421	      0.90341472	      0.30462787	     20.17257997	      7.74274848	     -4.62892675	    -21.47882295	      9.19950653	     -1.42957109	      6.78170682	     25.88648232	     -5.70298758	     -6.67484983	    -61.84903861	      5.50698759	     -2.41066759	      6.96491556	      5.93268632	      4.82983323	     -2.32569425
      0.93283333	    -10.02109603	     -2.28180954	      4.78523384	     -0.30492316	      0.90435192	      0.30525082	     19.55976682	      7.75078370	     -4.34991094	    -21.01695827	      9.16935323	     -1.31388296	      6.85010196	     26.31124865	     -5.61900934	     -7.03755683	    -61.09162744	      5.71457084	     -2.52460229	      6.83308378	      5.84196666	      4.71849741	     -1.89404524
      0.93700000	     -9.96514615	     -2.12372763	      4.49069621	     -0.30019419	      0.90528574	      0.30586569	     18.94008892	      7.72924324	     -4.05700188	    -20.58949311	      9.17963454	     -1.20468860	      6.88146351	     26.68719512	     -5.51028470	     -7.41513599	    -60.26562034	      5.86775405	     -2.68611294	      6.76770803	      5.73106088	      4.60405237	     -1.68118085
      0.94116667	     -9.91659535	     -1.99101612	      4.19550369	     -0.29547022	      0.90614778	      0.30651253	     18.31978101	      7.73218495	     -3.76426093	    -20.13022612	      9.16167263	     -1.09470652	      6.95111938	     27.07103660	     -5.43903774	     -7.78739838	    -59.42069349	      5.99695588	     -2.87583674	      6.61236942	      5.63292808	      4.48881367	     -1.19676766
      0.94533333	     -9.86256135	     -1.84823744	      3.88722111	     -0.29076913	      0.90697896	      0.30714863	     17.70496514	      7.71841143	     -3.46195971	    -19.69477305	      9.15501019	     -0.97556718	      7.01816706	     27.42861439	     -5.35672040	     -8.16323639	    -58.52288225	      6.08296182	     -3.10365277	      6.45239438	      5.52014688	      4.38114631	     -0.83731507
